<svg>
     <!--vk-->
    <symbol id="vk" viewBox="0 0 20 12" xmlns="http://www.w3.org/2000/svg">
        <path d="M16.5958 6.85675C16.2725 6.44842 16.365 6.26675 16.5958 5.90175C16.6 5.89758 19.2692 2.20925 19.5442 0.958415L19.5458 0.957581C19.6825 0.501748 19.5458 0.166748 18.885 0.166748H16.6983C16.1417 0.166748 15.885 0.454248 15.7475 0.775915C15.7475 0.775915 14.6342 3.44092 13.0592 5.16842C12.5508 5.66758 12.3158 5.82758 12.0383 5.82758C11.9017 5.82758 11.6892 5.66758 11.6892 5.21175V0.957581C11.6892 0.410915 11.5333 0.166748 11.0725 0.166748H7.63417C7.285 0.166748 7.0775 0.421748 7.0775 0.659248C7.0775 1.17758 7.865 1.29675 7.94667 2.75508V5.91925C7.94667 6.61258 7.82083 6.74008 7.54167 6.74008C6.79833 6.74008 4.99417 4.06425 3.925 1.00175C3.70917 0.407581 3.49833 0.167581 2.9375 0.167581H0.75C0.125833 0.167581 0 0.455081 0 0.776748C0 1.34508 0.743333 4.17092 3.45667 7.90425C5.265 10.4526 7.81167 11.8334 10.1283 11.8334C11.5208 11.8334 11.6908 11.5268 11.6908 10.9993C11.6908 8.56425 11.565 8.33425 12.2625 8.33425C12.5858 8.33425 13.1425 8.49425 14.4425 9.72342C15.9283 11.1809 16.1725 11.8334 17.0042 11.8334H19.1908C19.8142 11.8334 20.13 11.5268 19.9483 10.9218C19.5325 9.64925 16.7225 7.03175 16.5958 6.85675Z"/>
    </symbol>

    <!--telegram-->
    <symbol id="telegram" viewBox="0 0 19 18" xmlns="http://www.w3.org/2000/svg">
        <path d="M7.45514 11.6508L7.14085 16.3041C7.59052 16.3041 7.78527 16.1008 8.01881 15.8566L10.127 13.7358L14.4954 17.1033C15.2966 17.5733 15.8611 17.3258 16.0772 16.3274L18.9446 2.1841L18.9454 2.18326C19.1995 0.936598 18.5171 0.449098 17.7365 0.754931L0.881935 7.54743C-0.268356 8.01743 -0.25094 8.69243 0.686394 8.99826L4.99544 10.4091L15.0045 3.8166C15.4755 3.48826 15.9038 3.66993 15.5515 3.99826L7.45514 11.6508Z"/>
    </symbol>

    <!--instagram-->
    <symbol id="instagram" viewBox="0 0 15 16" xmlns="http://www.w3.org/2000/svg">
        <path d="M10.9396 0H4.06036C1.82144 0 0 1.94287 0 4.33105V11.669C0 14.0571 1.82144 16 4.06036 16H10.9397C13.1785 16 15 14.0571 15 11.669V4.33105C15 1.94287 13.1785 0 10.9396 0V0ZM7.49999 12.3749C5.23841 12.3749 3.39855 10.4123 3.39855 7.99998C3.39855 5.58764 5.23841 3.62512 7.49999 3.62512C9.76156 3.62512 11.6014 5.58764 11.6014 7.99998C11.6014 10.4123 9.76156 12.3749 7.49999 12.3749ZM11.6995 4.65685C11.0312 4.65685 10.4876 4.07702 10.4876 3.36413C10.4876 2.65124 11.0312 2.07129 11.6995 2.07129C12.3678 2.07129 12.9115 2.65124 12.9115 3.36413C12.9115 4.07702 12.3678 4.65685 11.6995 4.65685Z"/>
        <path d="M7.49997 4.56299C5.72339 4.56299 4.27789 6.10473 4.27789 7.99987C4.27789 9.89489 5.72339 11.4368 7.49997 11.4368C9.27666 11.4368 10.722 9.89489 10.722 7.99987C10.722 6.10473 9.27666 4.56299 7.49997 4.56299Z"/>
        <path d="M11.6995 3.00928C11.5162 3.00928 11.3669 3.16846 11.3669 3.36401C11.3669 3.55957 11.5162 3.71875 11.6995 3.71875C11.883 3.71875 12.0322 3.55969 12.0322 3.36401C12.0322 3.16833 11.883 3.00928 11.6995 3.00928Z"/>
    </symbol>

    <!--whatsapp-->
    <symbol id="whatsapp" viewBox="0 0 15 16" xmlns="http://www.w3.org/2000/svg">
        <path d="M7.50187 0H7.49813C3.36281 0 0 3.588 0 8C0 9.75 0.52875 11.372 1.42781 12.689L0.493125 15.661L3.37594 14.678C4.56187 15.516 5.97656 16 7.50187 16C11.6372 16 15 12.411 15 8C15 3.589 11.6372 0 7.50187 0ZM11.8659 11.297C11.685 11.842 10.9669 12.294 10.3941 12.426C10.0022 12.515 9.49031 12.586 7.76719 11.824C5.56312 10.85 4.14375 8.461 4.03312 8.306C3.92719 8.151 3.1425 7.041 3.1425 5.893C3.1425 4.745 3.68906 4.186 3.90938 3.946C4.09031 3.749 4.38937 3.659 4.67625 3.659C4.76906 3.659 4.8525 3.664 4.9275 3.668C5.14781 3.678 5.25844 3.692 5.40375 4.063C5.58469 4.528 6.02531 5.676 6.07781 5.794C6.13125 5.912 6.18469 6.072 6.10969 6.227C6.03938 6.387 5.9775 6.458 5.86687 6.594C5.75625 6.73 5.65125 6.834 5.54062 6.98C5.43937 7.107 5.325 7.243 5.4525 7.478C5.58 7.708 6.02063 8.475 6.66937 9.091C7.50656 9.886 8.18531 10.14 8.42812 10.248C8.60906 10.328 8.82469 10.309 8.95687 10.159C9.12469 9.966 9.33187 9.646 9.54281 9.331C9.69281 9.105 9.88219 9.077 10.0809 9.157C10.2834 9.232 11.355 9.797 11.5753 9.914C11.7956 10.032 11.9409 10.088 11.9944 10.187C12.0469 10.286 12.0469 10.751 11.8659 11.297Z"/>
    </symbol>

    <!--search-->
    <symbol id="search" viewBox="0 0 56 56" fill="none" xmlns="http://www.w3.org/2000/svg">
        <circle cx="28" cy="28" r="27.5" stroke="#E5E5E5"/>
        <g clip-path="url(#clip0_447_21)">
            <path d="M38.7312 37.4351L32.475 31.1789C33.6868 29.682 34.4165 27.7799 34.4165 25.7083C34.4165 20.9068 30.5097 17 25.7082 17C20.9068 17 17 20.9068 17 25.7082C17 30.5097 20.9068 34.4165 25.7083 34.4165C27.7799 34.4165 29.682 33.6868 31.1789 32.475L37.4351 38.7312C37.6138 38.9099 37.8484 38.9998 38.0831 38.9998C38.3178 38.9998 38.5525 38.9099 38.7312 38.7312C39.0896 38.3728 39.0896 37.7934 38.7312 37.4351ZM25.7083 32.5832C21.917 32.5832 18.8333 29.4995 18.8333 25.7082C18.8333 21.9169 21.917 18.8333 25.7083 18.8333C29.4996 18.8333 32.5832 21.9169 32.5832 25.7082C32.5832 29.4995 29.4995 32.5832 25.7083 32.5832Z" fill="#4C858B"/>
        </g>
        <defs>
            <clipPath id="clip0_447_21">
                <rect width="22" height="22" fill="white" transform="translate(17 17)"/>
            </clipPath>
        </defs>    
    </symbol>
    <!--favorites-->
    <symbol id="favorites" viewBox="0 0 56 56" fill="none" xmlns="http://www.w3.org/2000/svg">
        <circle cx="28" cy="28" r="27.5" stroke="#E5E5E5"/>
        <path d="M27.5 37.7204C27.1725 37.7204 26.8569 37.6018 26.6108 37.3863C25.6817 36.5739 24.7859 35.8104 23.9956 35.1369L23.9915 35.1334C21.6744 33.1588 19.6734 31.4535 18.2812 29.7736C16.7249 27.8957 16 26.1151 16 24.17C16 22.2801 16.648 20.5366 17.8246 19.2603C19.0152 17.969 20.6489 17.2578 22.4252 17.2578C23.7529 17.2578 24.9687 17.6776 26.039 18.5053C26.5791 18.9231 27.0687 19.4344 27.5 20.0309C27.9315 19.4344 28.4209 18.9231 28.9612 18.5053C30.0314 17.6776 31.2473 17.2578 32.5749 17.2578C34.3511 17.2578 35.9849 17.969 37.1755 19.2603C38.3521 20.5366 39 22.2801 39 24.17C39 26.1151 38.2752 27.8957 36.7189 29.7735C35.3267 31.4535 33.3259 33.1586 31.0091 35.133C30.2174 35.8076 29.3202 36.5723 28.3889 37.3867C28.1431 37.6018 27.8272 37.7204 27.5 37.7204ZM22.4252 18.6051C21.0297 18.6051 19.7476 19.1621 18.815 20.1735C17.8685 21.2002 17.3471 22.6195 17.3471 24.17C17.3471 25.806 17.9552 27.2691 19.3184 28.914C20.6361 30.504 22.596 32.1742 24.8652 34.1081L24.8694 34.1116C25.6627 34.7877 26.5621 35.5542 27.498 36.3726C28.4397 35.5526 29.3404 34.7849 30.1353 34.1077C32.4044 32.1738 34.3641 30.504 35.6817 28.914C37.0448 27.2691 37.6528 25.806 37.6528 24.17C37.6528 22.6195 37.1315 21.2002 36.185 20.1735C35.2525 19.1621 33.9703 18.6051 32.5749 18.6051C31.5526 18.6051 30.614 18.9301 29.7852 19.5709C29.0466 20.1423 28.5321 20.8645 28.2305 21.3699C28.0754 21.6298 27.8023 21.7849 27.5 21.7849C27.1976 21.7849 26.9246 21.6298 26.7695 21.3699C26.468 20.8645 25.9535 20.1423 25.2148 19.5709C24.386 18.9301 23.4474 18.6051 22.4252 18.6051Z" fill="#E33E54"/>
    </symbol>

    <!--cart-->
    <symbol id="cart" viewBox="0 0 56 56" fill="none" xmlns="http://www.w3.org/2000/svg">
        <circle cx="28" cy="28" r="27.5" stroke="#E5E5E5"/>
        <g clip-path="url(#clip0_238_8)">
            <path d="M39.6437 24.6749C39.3268 24.2773 38.8513 24.0492 38.3392 24.0492H33.7171L31.2108 18.3101C31.0554 17.9543 30.6409 17.7917 30.285 17.9472C29.9291 18.1026 29.7666 18.5171 29.9221 18.8729L32.1826 24.0492H23.8174L26.0779 18.8729C26.2333 18.5171 26.0709 18.1026 25.715 17.9472C25.3592 17.7917 24.9446 17.9542 24.7893 18.3101L22.2829 24.0492H17.6608C17.1487 24.0492 16.6732 24.2773 16.3563 24.6749C16.0452 25.0653 15.9304 25.5671 16.0413 26.0519L18.5096 36.8332C18.682 37.586 19.348 38.1117 20.1291 38.1117H35.8709C36.6521 38.1117 37.318 37.586 37.4904 36.8332L39.9587 26.0519C40.0696 25.5671 39.9548 25.0652 39.6437 24.6749ZM35.8709 36.7054H20.1291C20.0097 36.7054 19.9052 36.6271 19.8805 36.5192L17.4122 25.7381C17.3928 25.6535 17.4253 25.5898 17.456 25.5513C17.4845 25.5155 17.5491 25.4555 17.6608 25.4555H21.6688L21.4846 25.8772C21.3292 26.2331 21.4917 26.6475 21.8476 26.803C21.9392 26.843 22.0346 26.8619 22.1286 26.8619C22.3996 26.8619 22.6579 26.7043 22.7733 26.4401L23.2033 25.4556H32.7968L33.2268 26.4401C33.3422 26.7044 33.6005 26.8619 33.8715 26.8619C33.9655 26.8619 34.0609 26.843 34.1525 26.803C34.5084 26.6476 34.6709 26.2331 34.5155 25.8772L34.3313 25.4555H38.3393C38.451 25.4555 38.5156 25.5155 38.5441 25.5513C38.5748 25.5899 38.6073 25.6535 38.5879 25.738L36.1196 36.5193C36.0949 36.6271 35.9903 36.7054 35.8709 36.7054Z" fill="black"/>
            <path d="M23.7812 28.5024C23.3929 28.5024 23.0781 28.8173 23.0781 29.2056V34.3618C23.0781 34.7501 23.3929 35.0649 23.7812 35.0649C24.1696 35.0649 24.4844 34.7501 24.4844 34.3618V29.2056C24.4844 28.8173 24.1696 28.5024 23.7812 28.5024Z" fill="black"/>
            <path d="M28 28.5024C27.6117 28.5024 27.2969 28.8173 27.2969 29.2056V34.3618C27.2969 34.7501 27.6117 35.0649 28 35.0649C28.3883 35.0649 28.7031 34.7501 28.7031 34.3618V29.2056C28.7031 28.8173 28.3883 28.5024 28 28.5024Z" fill="black"/>
            <path d="M32.2188 28.5024C31.8304 28.5024 31.5156 28.8173 31.5156 29.2056V34.3618C31.5156 34.7501 31.8304 35.0649 32.2188 35.0649C32.6071 35.0649 32.9219 34.7501 32.9219 34.3618V29.2056C32.9218 28.8173 32.6071 28.5024 32.2188 28.5024Z" fill="black"/>
        </g>
        <defs>
            <clipPath id="clip0_238_8">
                <rect width="24" height="24" fill="white" transform="translate(16 16)"/>
            </clipPath>
        </defs>
    </symbol>
    
    <!--burger-menu-->
    <symbol id="burger-menu" viewBox="0 0 56 56" fill="none"  xmlns="http://www.w3.org/2000/svg">
        <circle cx="28" cy="28" r="27.5" stroke="#4C858B"/>
        <g clip-path="url(#clip0_447_27)">
            <path d="M38.0833 17.9167H17.9167C17.4104 17.9167 17 18.3272 17 18.8334C17 19.3396 17.4104 19.7501 17.9167 19.7501H38.0833C38.5896 19.7501 39 19.3397 39 18.8334C39 18.3271 38.5896 17.9167 38.0833 17.9167Z" fill="#4C858B"/>
            <path d="M38.0833 27.0833H17.9167C17.4104 27.0833 17 27.4937 17 27.9999C17 28.5062 17.4104 28.9166 17.9167 28.9166H38.0833C38.5896 28.9166 39 28.5062 39 27.9999C39 27.4937 38.5896 27.0833 38.0833 27.0833Z" fill="#4C858B"/>
            <path d="M38.0833 36.25H17.9167C17.4104 36.25 17 36.6604 17 37.1667C17 37.673 17.4104 38.0834 17.9167 38.0834H38.0833C38.5896 38.0834 39 37.673 39 37.1667C39 36.6604 38.5896 36.25 38.0833 36.25Z" fill="#4C858B"/>
        </g>
        <defs>
            <clipPath id="clip0_447_27">
                <rect width="22" height="22" fill="white" transform="translate(17 17)"/>
            </clipPath>
        </defs>
    </symbol>

    <!--clock-->
    <symbol id="clock" viewBox="0 0 15 15" fill="none" xmlns="http://www.w3.org/2000/svg">
        <path d="M7.5 0C3.3646 0 0 3.36442 0 7.5C0 11.6356 3.3646 15 7.5 15C11.6356 15 15 11.6356 15 7.5C15 3.36442 11.6354 0 7.5 0ZM7.5 13.9051C3.96826 13.9051 1.09488 11.0317 1.09488 7.5C1.09488 3.96826 3.96826 1.09488 7.5 1.09488C11.0317 1.09488 13.9051 3.96823 13.9051 7.49982C13.9051 11.0317 11.0317 13.9051 7.5 13.9051Z" fill="#4C858B"/>
        <path d="M10.0548 7.50009H7.6825V4.21541C7.6825 3.91304 7.43743 3.66797 7.13506 3.66797C6.83268 3.66797 6.58762 3.91304 6.58762 4.21541V8.04753C6.58762 8.3499 6.83268 8.59497 7.13506 8.59497H10.0548C10.3571 8.59497 10.6022 8.3499 10.6022 8.04753C10.6022 7.74516 10.3571 7.50009 10.0548 7.50009Z" fill="#4C858B"/>
    </symbol>

    <!--location-->
    <symbol id="location" viewBox="0 0 17 17" fill="none" xmlns="http://www.w3.org/2000/svg">
        <path d="M8.35585 0.522949C5.30122 0.522949 2.81604 3.00812 2.81604 6.06275C2.81604 9.90209 8.3613 16.4604 8.3613 16.4604C8.3613 16.4604 13.8957 9.71327 13.8957 6.06275C13.8957 3.00812 11.4106 0.522949 8.35585 0.522949ZM10.0273 7.6848C9.56644 8.14559 8.9612 8.37604 8.35585 8.37604C7.75061 8.37604 7.14517 8.14559 6.68447 7.6848C5.76279 6.76322 5.76279 5.26364 6.68447 4.34196C7.13077 3.89547 7.72444 3.64955 8.35585 3.64955C8.98727 3.64955 9.58084 3.89556 10.0273 4.34196C10.949 5.26364 10.949 6.76322 10.0273 7.6848Z" fill="#4C858B"/>
    </symbol>

    <!---->
    <symbol id="" >
        
    </symbol>
</svg>